<svg width="28" height="28" viewBox="0 0 28 28" fill="none" xmlns="http://www.w3.org/2000/svg">
<path d="M23.187 19.6719C23.4897 19.4925 23.865 19.4846 24.1743 19.6523L25.6968 20.4785C26.019 20.6533 26.22 20.9908 26.2202 21.3574V23.2695C26.2202 23.6378 26.0173 23.9771 25.6929 24.1514L24.3442 24.876C24.06 25.0286 23.7188 25.0339 23.4292 24.8916L21.9048 24.1426C21.5628 23.9744 21.3462 23.6262 21.3462 23.2451V21.332C21.3463 20.9791 21.5328 20.6527 21.8364 20.4727L23.187 19.6719ZM6.77979 18.2676C6.78005 19.0958 7.45152 19.7676 8.27979 19.7676H18.1987V24.7676H8.27979C4.6901 24.7676 1.78005 21.8572 1.77979 18.2676V3.00586H6.77979V18.2676Z" fill="black"/>
</svg>
