<svg width="24" height="24" viewBox="0 0 24 24" fill="none" xmlns="http://www.w3.org/2000/svg">
<path d="M12.001 0C18.6282 0.000263879 24.001 5.37275 24.001 12C24.001 18.6273 18.6282 23.9997 12.001 24C5.37356 24 0 18.6274 0 12C0 5.37258 5.37356 0 12.001 0ZM12.001 2C6.47813 2 2.00098 6.47715 2.00098 12C2.00098 17.5228 6.47813 22 12.001 22C17.5236 21.9997 22.001 17.5227 22.001 12C22.001 6.47731 17.5236 2.00026 12.001 2ZM9.43555 14.3877H7.09082V15.4639H9.14355V16.2764H7.09082V18.2383H6.11914V13.5664H9.43555V14.3877ZM13.708 18.2383H12.6484L12.3467 17.2764H10.623L10.2998 18.2383H9.27734L10.9473 13.5596H12.0518L13.708 18.2383ZM17.0469 16.8252V13.5596H17.958V18.2383H16.9805L15.0693 14.915V18.2383H14.1592V13.5596H15.1836L17.0469 16.8252ZM10.8867 16.4697H12.0732L11.4893 14.6289L10.8867 16.4697ZM13.8154 4.60156C15.057 4.60179 16.032 5.57276 16.0322 6.81836C16.0322 8.33851 14.6616 9.58472 12.585 11.4678L12 12L11.416 11.4678C9.33942 9.58472 7.96875 8.33851 7.96875 6.81836C7.96898 5.57276 8.94398 4.60179 10.1855 4.60156C10.887 4.60156 11.5605 4.92761 12 5.43945C12.4395 4.92736 13.1138 4.60156 13.8154 4.60156Z" fill="black"/>
</svg>
