<svg width="24" height="24" viewBox="0 0 24 24" fill="none" xmlns="http://www.w3.org/2000/svg">
<path d="M6.01051 2.11802C7.29713 1.81066 8.63205 2.39263 9.282 3.54478L10.2674 5.29087C10.9692 6.53511 10.6962 8.10229 9.61501 9.03599L9.03493 9.53599L13.0252 14.9764L14.073 14.453C15.1415 13.919 16.4249 14.0698 17.3406 14.8368L19.5496 16.6874C20.5192 17.4998 20.7294 18.9087 20.0388 19.9686L19.3963 20.9549C18.9368 21.6601 18.1536 22.2141 17.1961 22.2479C10.5811 22.48 2.4359 16.1488 3.11208 5.43931C3.2183 3.75748 4.48283 2.48311 6.01051 2.11802ZM6.47536 4.06236C5.6883 4.25045 5.15196 4.87193 5.10817 5.56529C4.50495 15.1188 11.7157 20.4387 17.1257 20.2489C17.3204 20.2419 17.5506 20.1239 17.7205 19.8631L18.3631 18.8768C18.5011 18.6649 18.4592 18.3831 18.2654 18.2206L16.0564 16.37C15.7511 16.1142 15.3228 16.0639 14.9666 16.242L13.9197 16.7655C13.0481 17.2013 11.9893 16.9457 11.4129 16.16L7.14919 10.3465C6.6868 9.71579 6.78675 8.83526 7.37868 8.32408L8.30739 7.52232C8.66773 7.21116 8.75894 6.68898 8.52516 6.27427L7.53981 4.5272C7.32836 4.15237 6.89394 3.96251 6.47536 4.06236Z" fill="black"/>
</svg>
