<svg width="24" height="24" viewBox="0 0 24 24" fill="none" xmlns="http://www.w3.org/2000/svg">
<path d="M11.7666 1.66016C16.3644 1.6603 20.0927 5.38753 20.0929 9.98536L20.0876 10.2037C19.8685 14.8241 12.8526 22.3391 11.7666 22.3403C10.6634 22.3391 3.44141 14.5831 3.44141 9.98536C3.44159 5.38753 7.16882 1.6603 11.7666 1.66016ZM11.7666 3.82003C8.3617 3.82017 5.60146 6.58038 5.60128 9.98536C5.60128 10.6344 5.87763 11.6212 6.51458 12.8814C7.12955 14.098 7.98336 15.3818 8.89909 16.5662C9.81298 17.7483 10.7493 18.7805 11.4966 19.4981C11.5916 19.5893 11.6823 19.6732 11.7666 19.7501C11.851 19.6731 11.9415 19.5894 12.0366 19.4981C12.7839 18.7805 13.7202 17.7484 14.6341 16.5662C15.5499 15.3817 16.4037 14.098 17.0186 12.8814C17.6556 11.6211 17.933 10.6344 17.933 9.98536C17.9328 6.58038 15.1715 3.82017 11.7666 3.82003ZM11.7666 7.95416C12.7571 7.95416 13.5604 8.75653 13.5605 9.74702C13.5605 10.7376 12.7572 11.5409 11.7666 11.5409C10.776 11.5409 9.9727 10.7376 9.9727 9.74702C9.97284 8.75653 10.7761 7.95416 11.7666 7.95416Z" fill="black"/>
</svg>
