<svg width="28" height="28" viewBox="0 0 28 28" fill="none" xmlns="http://www.w3.org/2000/svg">
<path fill-rule="evenodd" clip-rule="evenodd" d="M19.4805 5.43346C20.6327 3.63824 23.3501 3.97219 24.0332 5.99303C24.0633 6.08184 24.1157 6.16191 24.1855 6.22447L26.9766 8.72349C27.475 9.16983 27.7598 9.80738 27.7598 10.4764C27.7596 11.7757 26.7065 12.8289 25.4072 12.829H23.6943C23.3483 12.8291 23.027 13.0084 22.8447 13.3026L22.1943 14.3524L19.9746 17.9374C19.8768 18.0954 19.8252 18.2779 19.8252 18.4637V23.7372H17.8252V18.4637C17.8252 17.9059 17.9808 17.359 18.2744 16.8846L20.0303 14.0477L16.9355 11.5379L15.9854 12.0878C15.5289 12.3517 15.0107 12.4911 14.4834 12.4911H5.6123C5.47847 12.4913 5.37027 12.5994 5.37012 12.7333V17.2499C5.37009 17.912 5.12483 18.5509 4.68164 19.0428C4.56939 19.1674 4.50684 19.3292 4.50684 19.4969V23.7372H2.50684V19.4969C2.50684 18.8348 2.75206 18.1959 3.19531 17.704C3.30756 17.5794 3.37009 17.4175 3.37012 17.2499V13.5145C2.85065 13.3477 2.26825 13.081 1.74414 12.6463C0.869318 11.9207 0.240116 10.7979 0.240234 9.18248H2.24023C2.24015 10.2135 2.61292 10.7684 3.02148 11.1073C3.23489 11.2842 3.47973 11.4162 3.72852 11.5174C4.12792 10.8999 4.82214 10.4912 5.6123 10.4911H14.4834C14.6592 10.4911 14.8322 10.4443 14.9844 10.3563L16.5312 9.46178L16.8994 9.24889C17.0373 9.16917 17.1542 9.05765 17.2402 8.92369L19.4805 5.43346ZM14.0107 16.8944C14.6413 16.8944 15.2551 17.0992 15.7598 17.4774C16.4943 18.028 16.9266 18.8924 16.9268 19.8104V23.7372H14.9268V19.8104C14.9266 19.5222 14.791 19.251 14.5605 19.078C14.402 18.9592 14.2089 18.8944 14.0107 18.8944H8.84961C8.66148 18.8944 8.47887 18.9599 8.33398 19.0799C8.14885 19.2333 8.04205 19.4616 8.04199 19.702V23.7372H6.04199V19.702C6.04205 18.8659 6.41468 18.0733 7.05859 17.5399C7.56221 17.1228 8.19567 16.8944 8.84961 16.8944H14.0107ZM22.1377 6.63267C21.9912 6.20059 21.4106 6.12944 21.1641 6.51353L18.9238 10.0038C18.8437 10.1287 18.7524 10.2453 18.6553 10.3563L21.0918 12.3338L21.1445 12.2499C21.6914 11.3668 22.6557 10.8291 23.6943 10.829H25.4072C25.6019 10.8289 25.7596 10.6711 25.7598 10.4764C25.7598 10.3762 25.7172 10.2807 25.6426 10.2137L22.8516 7.71373C22.5246 7.42098 22.2782 7.0484 22.1377 6.63267Z" fill="black"/>
</svg>
