<svg width="42" height="42" viewBox="0 0 42 42" fill="none" xmlns="http://www.w3.org/2000/svg">
<g filter="url(#filter0_d_3758_1844)">
<path d="M5 26.8789C5.55212 26.8789 5.99974 27.3268 6 27.8789V30.5205C6.00026 31.0726 6.44788 31.5205 7 31.5205H9.75586C10.3081 31.5205 10.7559 31.9682 10.7559 32.5205C10.7556 33.0726 10.308 33.5205 9.75586 33.5205H7C5.34331 33.5205 4.00026 32.1771 4 30.5205V27.8789C4.00026 27.3268 4.44788 26.8789 5 26.8789ZM36.9023 26.8789C37.4542 26.8792 37.9021 27.327 37.9023 27.8789V30.5205C37.9021 32.177 36.5588 33.5202 34.9023 33.5205H32.1465C31.5944 33.5205 31.1467 33.0726 31.1465 32.5205C31.1465 31.9682 31.5942 31.5205 32.1465 31.5205H34.9023C35.4542 31.5202 35.9021 31.0724 35.9023 30.5205V27.8789C35.9026 27.3268 36.3502 26.8789 36.9023 26.8789ZM11.2461 9.2207C11.4668 9.22089 11.6455 9.39936 11.6455 9.62012V23.5996C11.6455 23.8204 11.4668 23.9998 11.2461 24H10.1562C9.93537 24 9.75591 23.8205 9.75586 23.5996V9.62012C9.75591 9.39925 9.93537 9.2207 10.1562 9.2207H11.2461ZM17.6475 9.2207C17.8682 9.22089 18.0468 9.39936 18.0469 9.62012V23.5996C18.0468 23.8204 17.8682 23.9998 17.6475 24H13.8945C13.6736 24 13.4942 23.8205 13.4941 23.5996V9.62012C13.4942 9.39925 13.6736 9.2207 13.8945 9.2207H17.6475ZM21.3848 9.2207C21.6056 9.2207 21.7851 9.39925 21.7852 9.62012V23.5996C21.7851 23.8205 21.6056 24 21.3848 24H20.3691C20.1484 23.9998 19.9698 23.8204 19.9697 23.5996V9.62012C19.9698 9.39936 20.1484 9.22089 20.3691 9.2207H21.3848ZM26.9922 9.2207C27.2131 9.2207 27.3925 9.39925 27.3926 9.62012V23.5996C27.3925 23.8205 27.2131 24 26.9922 24H24.0332C23.8123 24 23.6329 23.8205 23.6328 23.5996V9.62012C23.6329 9.39925 23.8123 9.2207 24.0332 9.2207H26.9922ZM31.7461 9.2207C31.9668 9.22089 32.1455 9.39936 32.1455 9.62012V23.5996C32.1455 23.8204 31.9668 23.9998 31.7461 24H29.7148C29.494 23.9999 29.3155 23.8204 29.3154 23.5996V9.62012C29.3155 9.39928 29.494 9.22076 29.7148 9.2207H31.7461ZM9.75586 0C10.3081 0 10.7559 0.447715 10.7559 1C10.7559 1.55228 10.3081 2 9.75586 2H7C6.44772 2 6 2.44772 6 3V5.6416C5.99974 6.19366 5.55212 6.6416 5 6.6416C4.44788 6.6416 4.00026 6.19366 4 5.6416V3C4 1.34315 5.34315 0 7 0H9.75586ZM34.9023 0C36.559 0.000263856 37.9023 1.34331 37.9023 3V5.6416C37.9021 6.1935 37.4542 6.64134 36.9023 6.6416C36.3502 6.6416 35.9026 6.19366 35.9023 5.6416V3C35.9023 2.44788 35.4544 2.00026 34.9023 2H32.1465C31.5942 2 31.1465 1.55228 31.1465 1C31.1465 0.447715 31.5942 0 32.1465 0H34.9023Z" fill="black"/>
<path d="M5 27.3789C5.27566 27.3789 5.49974 27.6027 5.5 27.8789V30.5205C5.5004 31.3483 6.1715 32.0205 7 32.0205H9.75586C10.032 32.0205 10.2559 32.2444 10.2559 32.5205L10.2461 32.6211C10.1994 32.8491 9.99717 33.0205 9.75586 33.0205H7C5.61956 33.0205 4.50026 31.9011 4.5 30.5205V27.8789L4.50977 27.7783C4.55649 27.5503 4.75869 27.3789 5 27.3789ZM36.9023 27.3789C37.1781 27.3792 37.4021 27.6032 37.4023 27.8789V30.5205L37.3896 30.7764C37.2613 32.0366 36.1963 33.0203 34.9023 33.0205H32.1465C31.8708 33.0205 31.6467 32.7967 31.6465 32.5205C31.6465 32.2444 31.8703 32.0205 32.1465 32.0205H34.9023C35.7302 32.0201 36.4019 31.3484 36.4023 30.5205V27.8789L36.4121 27.7783C36.4588 27.5503 36.661 27.3789 36.9023 27.3789ZM31.6455 9.7207V23.5H29.8154V9.7207H31.6455ZM26.8926 9.7207V23.5H24.1328V9.7207H26.8926ZM21.2852 9.7207V23.5H20.4697V9.7207H21.2852ZM17.5469 9.7207V23.5H13.9941V9.7207H17.5469ZM11.1455 9.7207V23.5H10.2559V9.7207H11.1455ZM7 0.5H9.75586C10.032 0.5 10.2559 0.723858 10.2559 1C10.2559 1.27614 10.032 1.5 9.75586 1.5H7C6.17157 1.5 5.5 2.17157 5.5 3V5.6416L5.49023 5.74219C5.44351 5.97022 5.24131 6.1416 5 6.1416C4.72434 6.1416 4.50026 5.91783 4.5 5.6416V3C4.5 1.61929 5.61929 0.5 7 0.5ZM32.1465 0.5H34.9023C36.2829 0.500263 37.4023 1.61956 37.4023 3V5.6416L37.3926 5.74219C37.3458 5.96987 37.1437 6.14137 36.9023 6.1416C36.6267 6.1416 36.4026 5.91783 36.4023 5.6416V3C36.4023 2.1715 35.7301 1.5004 34.9023 1.5H32.1465C31.8703 1.5 31.6465 1.27614 31.6465 1C31.6465 0.723858 31.8703 0.5 32.1465 0.5Z" stroke="black"/>
</g>
<defs>
<filter id="filter0_d_3758_1844" x="0" y="0" width="41.9023" height="41.5205" filterUnits="userSpaceOnUse" color-interpolation-filters="sRGB">
<feFlood flood-opacity="0" result="BackgroundImageFix"/>
<feColorMatrix in="SourceAlpha" type="matrix" values="0 0 0 0 0 0 0 0 0 0 0 0 0 0 0 0 0 0 127 0" result="hardAlpha"/>
<feOffset dy="4"/>
<feGaussianBlur stdDeviation="2"/>
<feComposite in2="hardAlpha" operator="out"/>
<feColorMatrix type="matrix" values="0 0 0 0 0 0 0 0 0 0 0 0 0 0 0 0 0 0 0.25 0"/>
<feBlend mode="normal" in2="BackgroundImageFix" result="effect1_dropShadow_3758_1844"/>
<feBlend mode="normal" in="SourceGraphic" in2="effect1_dropShadow_3758_1844" result="shape"/>
</filter>
</defs>
</svg>
