<svg width="38" height="38" viewBox="0 0 38 38" fill="none" xmlns="http://www.w3.org/2000/svg">
<path d="M3.04883 29.1187C3.60095 29.1187 4.04856 29.5666 4.04883 30.1187V32.7603C4.04909 33.3123 4.49671 33.7603 5.04883 33.7603H7.80469C8.35697 33.7603 8.80469 34.208 8.80469 34.7603C8.80442 35.3123 8.35681 35.7603 7.80469 35.7603H5.04883C3.39214 35.7603 2.04909 34.4169 2.04883 32.7603V30.1187C2.04909 29.5666 2.49671 29.1187 3.04883 29.1187ZM34.9512 29.1187C35.5031 29.1189 35.9509 29.5668 35.9512 30.1187V32.7603C35.9509 34.4167 34.6076 35.76 32.9512 35.7603H30.1953C29.6432 35.7603 29.1956 35.3123 29.1953 34.7603C29.1953 34.208 29.643 33.7603 30.1953 33.7603H32.9512C33.5031 33.76 33.9509 33.3122 33.9512 32.7603V30.1187C33.9514 29.5666 34.3991 29.1187 34.9512 29.1187ZM9.29492 11.4604C9.51565 11.4606 9.69428 11.6391 9.69434 11.8599V25.8394C9.69428 26.0601 9.51565 26.2396 9.29492 26.2397H8.20508C7.9842 26.2397 7.80474 26.0602 7.80469 25.8394V11.8599C7.80474 11.639 7.9842 11.4604 8.20508 11.4604H9.29492ZM15.6963 11.4604C15.917 11.4606 16.0957 11.6391 16.0957 11.8599V25.8394C16.0957 26.0601 15.917 26.2396 15.6963 26.2397H11.9434C11.7225 26.2397 11.543 26.0602 11.543 25.8394V11.8599C11.543 11.639 11.7225 11.4604 11.9434 11.4604H15.6963ZM19.4336 11.4604C19.6545 11.4604 19.8339 11.639 19.834 11.8599V18.8496V25.8394C19.8339 26.0602 19.6545 26.2397 19.4336 26.2397H18.418C18.1972 26.2396 18.0186 26.0601 18.0186 25.8394V11.8599C18.0186 11.6391 18.1972 11.4606 18.418 11.4604H19.4336ZM25.041 11.4604C25.2619 11.4604 25.4414 11.639 25.4414 11.8599V25.8394C25.4414 26.0602 25.2619 26.2397 25.041 26.2397H22.082C21.8612 26.2397 21.6817 26.0602 21.6816 25.8394V11.8599C21.6817 11.639 21.8611 11.4604 22.082 11.4604H25.041ZM29.7949 11.4604C30.0156 11.4606 30.1943 11.6391 30.1943 11.8599V25.8394C30.1943 26.0601 30.0156 26.2396 29.7949 26.2397H27.7637C27.5428 26.2397 27.3643 26.0602 27.3643 25.8394V11.8599C27.3643 11.639 27.5428 11.4605 27.7637 11.4604H29.7949ZM7.80469 2.23975C8.35697 2.23975 8.80469 2.68746 8.80469 3.23975C8.80469 3.79203 8.35697 4.23975 7.80469 4.23975H5.04883C4.49654 4.23975 4.04883 4.68746 4.04883 5.23975V7.88135C4.04856 8.43341 3.60095 8.88135 3.04883 8.88135C2.49671 8.88135 2.04909 8.43341 2.04883 7.88135V5.23975C2.04883 3.58289 3.39197 2.23975 5.04883 2.23975H7.80469ZM32.9512 2.23975C34.6078 2.24001 35.9512 3.58305 35.9512 5.23975V7.88135C35.9509 8.43325 35.5031 8.88108 34.9512 8.88135C34.3991 8.88135 33.9514 8.43341 33.9512 7.88135V5.23975C33.9512 4.68762 33.5032 4.24001 32.9512 4.23975H30.1953C29.643 4.23975 29.1953 3.79203 29.1953 3.23975C29.1953 2.68746 29.643 2.23975 30.1953 2.23975H32.9512Z" fill="#797979"/>
</svg>
