<svg width="24" height="24" viewBox="0 0 24 24" fill="none" xmlns="http://www.w3.org/2000/svg">
<path d="M20.293 21.9736C20.8453 21.9736 21.293 22.4213 21.293 22.9736C21.293 23.5259 20.8453 23.9736 20.293 23.9736H3.70703C3.15475 23.9736 2.70703 23.5259 2.70703 22.9736C2.70703 22.4213 3.15475 21.9736 3.70703 21.9736H20.293ZM12 0.0263672C16.2575 0.0264991 19.7098 3.47785 19.71 7.73535L19.7051 7.9375C19.5022 12.2159 13.0056 19.1747 12 19.1758C10.9784 19.1746 4.29102 11.9927 4.29102 7.73535C4.29119 3.47785 7.74253 0.0264991 12 0.0263672ZM12 2.02637C8.84711 2.0265 6.29119 4.5824 6.29102 7.73535C6.29102 8.33633 6.54692 9.25007 7.13672 10.417C7.70616 11.5436 8.49678 12.7323 9.34473 13.8291C10.191 14.9236 11.058 15.8795 11.75 16.5439C11.838 16.6284 11.922 16.7061 12 16.7773C12.0781 16.706 12.162 16.6285 12.25 16.5439C12.942 15.8795 13.809 14.9237 14.6553 13.8291C15.5033 12.7323 16.2938 11.5436 16.8633 10.417C17.4531 9.25002 17.71 8.33635 17.71 7.73535C17.7098 4.5824 15.1529 2.0265 12 2.02637ZM12 5.85449C12.9172 5.85449 13.661 6.59748 13.6611 7.51465C13.6611 8.43193 12.9173 9.17578 12 9.17578C11.0827 9.17578 10.3389 8.43193 10.3389 7.51465C10.339 6.59748 11.0828 5.85449 12 5.85449Z" fill="#797979"/>
</svg>
