<svg width="19" height="24" viewBox="0 0 19 24" fill="none" xmlns="http://www.w3.org/2000/svg">
<path d="M17.5859 21.9473C18.1382 21.9473 18.5859 22.395 18.5859 22.9473C18.5859 23.4995 18.1382 23.9473 17.5859 23.9473H1C0.447715 23.9473 4.82823e-08 23.4995 0 22.9473C-4.82823e-08 22.395 0.447715 21.9473 1 21.9473H17.5859ZM9.29297 0C13.5504 0.000131938 17.0028 3.45148 17.0029 7.70898L16.998 7.91113C16.7952 12.1895 10.2986 19.1483 9.29297 19.1494C8.27139 19.1483 1.58398 11.9664 1.58398 7.70898C1.58415 3.45148 5.0355 0.000131941 9.29297 0ZM9.29297 2C6.14008 2.00013 3.58415 4.55603 3.58398 7.70898C3.58398 8.30997 3.83988 9.2237 4.42969 10.3906C4.99913 11.5172 5.78975 12.706 6.6377 13.8027C7.48394 14.8973 8.351 15.8531 9.04297 16.5176C9.13092 16.602 9.21493 16.6797 9.29297 16.751C9.37108 16.6797 9.45492 16.6021 9.54297 16.5176C10.235 15.8531 11.1019 14.8974 11.9482 13.8027C12.7962 12.7059 13.5868 11.5172 14.1562 10.3906C14.7461 9.22366 15.0029 8.30998 15.0029 7.70898C15.0028 4.55603 12.4459 2.00013 9.29297 2ZM9.29297 5.82812C10.2102 5.82812 10.954 6.57111 10.9541 7.48828C10.9541 8.40556 10.2103 9.14941 9.29297 9.14941C8.37569 9.14941 7.63184 8.40556 7.63184 7.48828C7.63197 6.57111 8.37577 5.82812 9.29297 5.82812Z" fill="black"/>
</svg>
