<svg width="24" height="24" viewBox="0 0 24 24" fill="none" xmlns="http://www.w3.org/2000/svg">
<path d="M17.2627 13.4517C20.2478 13.414 22.4492 15.6413 22.4492 18.0386V21.6714C22.449 22.2234 22.0013 22.6713 21.4492 22.6714C20.8971 22.6714 20.4494 22.2235 20.4492 21.6714V18.0386C20.4492 16.8758 19.2826 15.4266 17.2881 15.4517C14.5034 15.4869 13.9322 15.4717 11.999 15.4565C10.0671 15.4717 9.49571 15.4869 6.71191 15.4517C4.71726 15.4265 3.55078 16.8757 3.55078 18.0386V21.6714C3.55056 22.2234 3.10282 22.6713 2.55078 22.6714C1.99863 22.6714 1.551 22.2235 1.55078 21.6714V18.0386C1.55078 15.6413 3.75206 13.4139 6.7373 13.4517C9.17051 13.4825 9.88585 13.4732 11.3457 13.4604L11.3467 13.4517C11.5821 13.4532 11.7986 13.454 12 13.4556C12.2014 13.454 12.418 13.4532 12.6533 13.4517V13.4604C14.1136 13.4732 14.829 13.4825 17.2627 13.4517ZM12 1.32861C14.9037 1.32875 17.2578 3.6827 17.2578 6.58643C17.2578 9.49015 14.9037 11.8441 12 11.8442C9.09619 11.8442 6.74219 9.49024 6.74219 6.58643C6.74219 3.68262 9.09619 1.32861 12 1.32861ZM12 3.32861C10.2008 3.32861 8.74219 4.78719 8.74219 6.58643C8.74219 8.38567 10.2008 9.84424 12 9.84424C13.7991 9.84411 15.2578 8.38558 15.2578 6.58643C15.2578 4.78727 13.7991 3.32875 12 3.32861Z" fill="black"/>
</svg>
