<svg width="24" height="24" viewBox="0 0 24 24" fill="none" xmlns="http://www.w3.org/2000/svg">
<path d="M11.9836 0.712402C13.0771 0.712482 13.993 0.968818 14.7355 1.4458C15.4757 1.92148 15.9797 2.57556 16.3186 3.26709C16.7912 4.23213 16.9639 5.31943 17.0246 6.24365H19.2024C19.764 6.24376 20.2457 6.63203 20.3713 7.16943L20.3909 7.27979L22.4153 21.9233C22.5147 22.6442 21.9546 23.2875 21.2268 23.2876H2.7735C2.03675 23.2876 1.47404 22.6297 1.58794 21.9019L3.88484 7.25732C3.97654 6.67373 4.47963 6.24373 5.0704 6.24365H6.97374C7.03501 5.36127 7.20346 4.29798 7.65734 3.34131C7.98834 2.64386 8.48302 1.97277 9.21888 1.47998C9.9599 0.983808 10.8802 0.712402 11.9836 0.712402ZM3.70905 21.2876H20.3088L18.5061 8.24365H5.754L3.70905 21.2876ZM11.9836 2.7124C11.2195 2.7124 10.6996 2.89609 10.3322 3.14209C9.95988 3.39139 9.67716 3.74956 9.464 4.19873C9.1702 4.81804 9.0372 5.55145 8.97962 6.24365H15.0197C14.9624 5.51159 14.8251 4.76459 14.5226 4.14697C14.31 3.71305 14.0279 3.36845 13.6545 3.12842C13.2834 2.89011 12.7564 2.71248 11.9836 2.7124Z" fill="#797979"/>
</svg>
