<svg width="32" height="34" viewBox="0 0 32 34" fill="none" xmlns="http://www.w3.org/2000/svg">
<g filter="url(#filter0_dd_3758_1831)">
<path d="M18 3.5C18.5523 3.5 19 3.94772 19 4.5C19 5.05228 18.5523 5.5 18 5.5H9C7.34315 5.5 6 6.84315 6 8.5V20.5C6 22.1569 7.34315 23.5 9 23.5H21.5C23.1569 23.5 24.5 22.1569 24.5 20.5V12C24.5 11.4477 24.9477 11 25.5 11C26.0523 11 26.5 11.4477 26.5 12V20.5C26.5 23.2614 24.2614 25.5 21.5 25.5H9C6.23858 25.5 4 23.2614 4 20.5V8.5C4 5.73858 6.23858 3.5 9 3.5H18ZM12.4102 11.4746C12.8123 10.6033 13.9987 10.5484 14.499 11.3105L14.5898 11.4746L17.4082 17.5811C17.6395 18.0825 17.4203 18.6768 16.9189 18.9082C16.4175 19.1395 15.8232 18.9203 15.5918 18.4189L14.9365 17H12.0635L11.4082 18.4189C11.1768 18.9203 10.5825 19.1395 10.0811 18.9082C9.57966 18.6768 9.3605 18.0825 9.5918 17.5811L12.4102 11.4746ZM19.5 10.5C20.0523 10.5 20.5 10.9477 20.5 11.5V18C20.5 18.5523 20.0523 19 19.5 19C18.9477 19 18.5 18.5523 18.5 18V11.5C18.5 10.9477 18.9477 10.5 19.5 10.5ZM12.9863 15H14.0137L13.5 13.8867L12.9863 15ZM23.5 2.24023C23.8087 2.24023 24.1697 2.35868 24.4307 2.65234L24.5352 2.78906L24.7754 3.11914C25.0494 3.47171 25.4204 3.88467 25.8271 4.28711C26.3722 4.82634 26.9147 5.28074 27.29 5.51562C27.8933 5.8931 28.1265 6.83751 27.4678 7.43164C27.0695 7.79085 26.5549 8.22285 25.9346 8.79102C25.3339 9.34122 24.8012 9.87234 24.5186 10.2559C24.2429 10.6301 23.8292 10.7627 23.5 10.7627C23.1708 10.7627 22.7571 10.6301 22.4814 10.2559C22.1988 9.87234 21.6661 9.34122 21.0654 8.79102C20.4451 8.22285 19.9305 7.79085 19.5322 7.43164C18.8735 6.83752 19.1067 5.8931 19.71 5.51562L19.8584 5.41797C20.2212 5.16633 20.6959 4.75898 21.1729 4.28711C21.7153 3.75048 22.1948 3.19495 22.4648 2.78906L22.5693 2.65234C22.8303 2.35868 23.1913 2.24023 23.5 2.24023ZM23.5 4.71777C23.2163 5.05206 22.8993 5.39225 22.5791 5.70898C22.2669 6.01782 21.9334 6.32286 21.6064 6.59375C21.866 6.82193 22.152 7.07459 22.416 7.31641C22.7759 7.64601 23.1606 8.01285 23.5 8.37402C23.8394 8.01285 24.2241 7.64601 24.584 7.31641C24.8478 7.07477 25.1332 6.82181 25.3926 6.59375C25.0658 6.32298 24.7329 6.01764 24.4209 5.70898C24.1007 5.39225 23.7837 5.05206 23.5 4.71777Z" fill="black"/>
</g>
<defs>
<filter id="filter0_dd_3758_1831" x="-2" y="0" width="36" height="36" filterUnits="userSpaceOnUse" color-interpolation-filters="sRGB">
<feFlood flood-opacity="0" result="BackgroundImageFix"/>
<feColorMatrix in="SourceAlpha" type="matrix" values="0 0 0 0 0 0 0 0 0 0 0 0 0 0 0 0 0 0 127 0" result="hardAlpha"/>
<feOffset dy="4"/>
<feGaussianBlur stdDeviation="2"/>
<feComposite in2="hardAlpha" operator="out"/>
<feColorMatrix type="matrix" values="0 0 0 0 0 0 0 0 0 0 0 0 0 0 0 0 0 0 0.25 0"/>
<feBlend mode="normal" in2="BackgroundImageFix" result="effect1_dropShadow_3758_1831"/>
<feColorMatrix in="SourceAlpha" type="matrix" values="0 0 0 0 0 0 0 0 0 0 0 0 0 0 0 0 0 0 127 0" result="hardAlpha"/>
<feOffset dy="4"/>
<feGaussianBlur stdDeviation="2"/>
<feComposite in2="hardAlpha" operator="out"/>
<feColorMatrix type="matrix" values="0 0 0 0 0 0 0 0 0 0 0 0 0 0 0 0 0 0 0.25 0"/>
<feBlend mode="normal" in2="effect1_dropShadow_3758_1831" result="effect2_dropShadow_3758_1831"/>
<feBlend mode="normal" in="SourceGraphic" in2="effect2_dropShadow_3758_1831" result="shape"/>
</filter>
</defs>
</svg>
