<svg width="28" height="35" viewBox="0 0 28 35" fill="none" xmlns="http://www.w3.org/2000/svg">
<g filter="url(#filter0_dd_3758_1835)">
<path d="M22.2998 1C22.9625 1 23.5 1.53745 23.5 2.2002V25.0176C23.4997 26.0864 22.207 26.6211 21.4512 25.8652L18.8848 23.2998L14.7109 26.2227C14.2339 26.5566 13.5856 26.5006 13.1738 26.0889L10.416 23.3311L6.93652 26.0381C6.14829 26.6511 5 26.0894 5 25.0908V2.2002C5 1.53746 5.53745 1 6.2002 1H22.2998ZM7 23.4551L9.74707 21.3193L9.83887 21.2539C10.2773 20.9742 10.8487 21.0097 11.249 21.3418L11.332 21.418L14.1143 24.1992L18.2891 21.2773L18.3809 21.2188C18.8156 20.9694 19.3615 21.0174 19.7461 21.3389L19.8262 21.4111L21.5 23.085V3H7V23.4551ZM19 14.5C19.5523 14.5 20 14.9477 20 15.5C20 16.0523 19.5523 16.5 19 16.5H10C9.44772 16.5 9 16.0523 9 15.5C9 14.9477 9.44772 14.5 10 14.5H19ZM19 11C19.5523 11 20 11.4477 20 12C20 12.5523 19.5523 13 19 13H10C9.44772 13 9 12.5523 9 12C9 11.4477 9.44772 11 10 11H19ZM19 7.5C19.5523 7.5 20 7.94772 20 8.5C20 9.05229 19.5523 9.5 19 9.5H10C9.44772 9.5 9 9.05229 9 8.5C9 7.94772 9.44772 7.5 10 7.5H19Z" fill="black"/>
</g>
<defs>
<filter id="filter0_dd_3758_1835" x="-4" y="0" width="36" height="36" filterUnits="userSpaceOnUse" color-interpolation-filters="sRGB">
<feFlood flood-opacity="0" result="BackgroundImageFix"/>
<feColorMatrix in="SourceAlpha" type="matrix" values="0 0 0 0 0 0 0 0 0 0 0 0 0 0 0 0 0 0 127 0" result="hardAlpha"/>
<feOffset dy="4"/>
<feGaussianBlur stdDeviation="2"/>
<feComposite in2="hardAlpha" operator="out"/>
<feColorMatrix type="matrix" values="0 0 0 0 0 0 0 0 0 0 0 0 0 0 0 0 0 0 0.25 0"/>
<feBlend mode="normal" in2="BackgroundImageFix" result="effect1_dropShadow_3758_1835"/>
<feColorMatrix in="SourceAlpha" type="matrix" values="0 0 0 0 0 0 0 0 0 0 0 0 0 0 0 0 0 0 127 0" result="hardAlpha"/>
<feOffset dy="4"/>
<feGaussianBlur stdDeviation="2"/>
<feComposite in2="hardAlpha" operator="out"/>
<feColorMatrix type="matrix" values="0 0 0 0 0 0 0 0 0 0 0 0 0 0 0 0 0 0 0.25 0"/>
<feBlend mode="normal" in2="effect1_dropShadow_3758_1835" result="effect2_dropShadow_3758_1835"/>
<feBlend mode="normal" in="SourceGraphic" in2="effect2_dropShadow_3758_1835" result="shape"/>
</filter>
</defs>
</svg>
