<svg width="30" height="33" viewBox="0 0 30 33" fill="none" xmlns="http://www.w3.org/2000/svg">
<g filter="url(#filter0_dd_3758_1839)">
<path d="M20.5215 3C21.0738 3 21.5215 3.44772 21.5215 4V5.73926H23.5742C24.4576 5.73945 25.1736 6.45551 25.1738 7.33887V22.7178C25.1737 23.0299 25.0881 23.4756 24.8027 23.8721C24.4804 24.3197 23.9518 24.6308 23.2607 24.6309H5.91309C4.65662 24.6309 4.00006 23.4404 4 22.2607V7.33887C4.00021 6.45552 4.71626 5.73947 5.59961 5.73926H7.56543V4C7.56543 3.44772 8.01314 3 8.56543 3C9.11771 3 9.56543 3.44772 9.56543 4V5.73926H19.5215V4C19.5215 3.44779 19.9693 3.00011 20.5215 3ZM6 22.2607C6.00002 22.4528 6.03266 22.5688 6.05762 22.6309H23.1738V11.3916H6V22.2607ZM17.9893 13.3359C18.3798 12.946 19.013 12.9457 19.4033 13.3359C19.7935 13.7263 19.7932 14.3595 19.4033 14.75L15.2256 18.9277C14.6404 19.5129 13.7051 19.5552 13.0693 19.0254L10.751 17.0938C10.3271 16.7402 10.2698 16.1097 10.623 15.6855C10.9767 15.2617 11.6081 15.2042 12.0322 15.5576L14.0693 17.2549L17.9893 13.3359ZM6 9.3916H23.1738V7.73926H6V9.3916Z" fill="black"/>
</g>
<defs>
<filter id="filter0_dd_3758_1839" x="-3" y="0" width="36" height="36" filterUnits="userSpaceOnUse" color-interpolation-filters="sRGB">
<feFlood flood-opacity="0" result="BackgroundImageFix"/>
<feColorMatrix in="SourceAlpha" type="matrix" values="0 0 0 0 0 0 0 0 0 0 0 0 0 0 0 0 0 0 127 0" result="hardAlpha"/>
<feOffset dy="4"/>
<feGaussianBlur stdDeviation="2"/>
<feComposite in2="hardAlpha" operator="out"/>
<feColorMatrix type="matrix" values="0 0 0 0 0 0 0 0 0 0 0 0 0 0 0 0 0 0 0.25 0"/>
<feBlend mode="normal" in2="BackgroundImageFix" result="effect1_dropShadow_3758_1839"/>
<feColorMatrix in="SourceAlpha" type="matrix" values="0 0 0 0 0 0 0 0 0 0 0 0 0 0 0 0 0 0 127 0" result="hardAlpha"/>
<feOffset dy="4"/>
<feGaussianBlur stdDeviation="2"/>
<feComposite in2="hardAlpha" operator="out"/>
<feColorMatrix type="matrix" values="0 0 0 0 0 0 0 0 0 0 0 0 0 0 0 0 0 0 0.25 0"/>
<feBlend mode="normal" in2="effect1_dropShadow_3758_1839" result="effect2_dropShadow_3758_1839"/>
<feBlend mode="normal" in="SourceGraphic" in2="effect2_dropShadow_3758_1839" result="shape"/>
</filter>
</defs>
</svg>
