<svg width="24" height="24" viewBox="0 0 24 24" fill="none" xmlns="http://www.w3.org/2000/svg">
<path d="M10.293 4.29289C10.6835 3.90237 11.3165 3.90237 11.707 4.29289C12.0975 4.68342 12.0975 5.31645 11.707 5.70696L6.41309 10.9999H21C21.5523 10.9999 22 11.4477 22 11.9999C22 12.5522 21.5523 12.9999 21 12.9999H6.30078L11.7314 18.8173C12.1082 19.2211 12.0863 19.8546 11.6826 20.2314C11.2789 20.6082 10.6454 20.5863 10.2686 20.1826L3.40039 12.8232C3.37638 12.7974 3.35433 12.7703 3.33301 12.7431C3.12916 12.5601 3.00002 12.2955 3 11.9999C3 11.6887 3.14232 11.4109 3.36523 11.2275C3.38587 11.2033 3.40683 11.1791 3.42969 11.1562L10.293 4.29289Z" fill="black"/>
</svg>
