<svg width="24" height="24" viewBox="0 0 24 24" fill="none" xmlns="http://www.w3.org/2000/svg">
<path d="M8 11.5C8 10.6716 7.32843 10 6.5 10C5.67157 10 5 10.6716 5 11.5C5 12.3284 5.67157 13 6.5 13V15C4.567 15 3 13.433 3 11.5C3 9.567 4.567 8 6.5 8C8.433 8 10 9.567 10 11.5C10 13.433 8.433 15 6.5 15V13C7.32843 13 8 12.3284 8 11.5Z" fill="black"/>
<path d="M18 5.5C18 4.67157 17.3284 4 16.5 4C15.6716 4 15 4.67157 15 5.5C15 6.32843 15.6716 7 16.5 7V9C14.567 9 13 7.433 13 5.5C13 3.567 14.567 2 16.5 2C18.433 2 20 3.567 20 5.5C20 7.433 18.433 9 16.5 9V7C17.3284 7 18 6.32843 18 5.5Z" fill="black"/>
<path d="M18 17.5C18 16.6716 17.3284 16 16.5 16C15.6716 16 15 16.6716 15 17.5C15 18.3284 15.6716 19 16.5 19V21C14.567 21 13 19.433 13 17.5C13 15.567 14.567 14 16.5 14C18.433 14 20 15.567 20 17.5C20 19.433 18.433 21 16.5 21V19C17.3284 19 18 18.3284 18 17.5Z" fill="black"/>
<path d="M15.0039 15.6357L13.9961 17.3643L7.99609 13.8643L9.00391 12.1357L15.0039 15.6357Z" fill="black"/>
<path d="M7.99609 9.63574L9.00391 11.3643L15.0039 7.86426L13.9961 6.13574L7.99609 9.63574Z" fill="black"/>
</svg>
