<svg width="24" height="24" viewBox="0 0 24 24" fill="none" xmlns="http://www.w3.org/2000/svg">
<path d="M21.5 17.5C22.0523 17.5 22.5 17.9477 22.5 18.5C22.5 19.0523 22.0523 19.5 21.5 19.5H2C1.44772 19.5 1 19.0523 1 18.5C1 17.9477 1.44772 17.5 2 17.5H21.5ZM21.5 10.5C22.0523 10.5 22.5 10.9477 22.5 11.5C22.5 12.0523 22.0523 12.5 21.5 12.5H2C1.44772 12.5 1 12.0523 1 11.5C1 10.9477 1.44772 10.5 2 10.5H21.5ZM22 4C22.5523 4 23 4.44772 23 5C23 5.55228 22.5523 6 22 6H2.5C1.94772 6 1.5 5.55228 1.5 5C1.5 4.44772 1.94772 4 2.5 4H22Z" fill="black"/>
</svg>
