<svg width="24" height="24" viewBox="0 0 24 24" fill="none" xmlns="http://www.w3.org/2000/svg">
<path d="M10 2C14.4183 2 18 5.58172 18 10C18 11.8346 17.3804 13.5234 16.3418 14.873L21.6758 19.7627C22.0829 20.1359 22.1105 20.7687 21.7373 21.1758C21.3641 21.5829 20.7313 21.6105 20.3242 21.2373L14.9326 16.2949C13.5733 17.3616 11.8619 18 10 18C5.58172 18 2 14.4183 2 10C2 5.58172 5.58172 2 10 2ZM10 4C6.68629 4 4 6.68629 4 10C4 13.3137 6.68629 16 10 16C13.3137 16 16 13.3137 16 10C16 6.68629 13.3137 4 10 4Z" fill="black"/>
</svg>
