<svg width="24" height="24" viewBox="0 0 24 24" fill="none" xmlns="http://www.w3.org/2000/svg">
<path d="M11.2988 2.29073C11.7079 1.99346 12.262 1.98527 12.6797 2.27022L12.7666 2.33565L21.0625 9.16772C21.3392 9.3956 21.4999 9.73601 21.5 10.0945V20.7996C21.5 21.4624 20.9625 21.9998 20.2998 21.9998H4.2002C3.53745 21.9998 3 21.4624 3 20.7996V10.0906C3.00009 9.74465 3.14981 9.41505 3.41016 9.18725L11.2139 2.35909L11.2988 2.29073ZM5 10.4529V19.9998H11.25V14.9998C11.2502 14.4476 11.6978 13.9998 12.25 13.9998C12.8022 13.9998 13.2498 14.4476 13.25 14.9998V19.9998H19.5V10.4714L12.0186 4.31027L5 10.4529Z" fill="black"/>
</svg>
